<?xml version="1.0" encoding="utf-8"?>
<svg xmlns="http://www.w3.org/2000/svg">
  <defs>
    <!-- icons go here -->
  <symbol viewBox="0 0 190 190" id="a-char" xmlns="http://www.w3.org/2000/svg">
<path d="M14.5 17.2c-.3.7-.4 38.2-.3 83.3l.3 82h166l.3-82.4c.2-65.3 0-82.6-1-83.3-.7-.4-38.1-.8-83.1-.8-64.5 0-81.9.3-82.2 1.2zm142 34.8v11.5L133 64l-23.5.5L109 76l-.5 11.5-11.2.3-11.3.3V77.3c0-5.9-.4-11.4-.8-12-.6-.9-6.9-1.3-23.7-1.5l-23-.3-.3-10.4c-.1-5.8 0-11.1.2-11.8.5-1.1 11.3-1.3 59.3-1.1l58.8.3V52zm.3 70.2-.3 36.3-59.2.3-59.3.2V88h24v23h71V86h24l-.2 36.2z"/>
</symbol>
<symbol viewBox="0 0 196 196" id="b-char" xmlns="http://www.w3.org/2000/svg">
<path d="M14.5 21.2c-.3 1.8-.4 39.3-.3 83.3l.3 80h166l.3-82.4c.2-65.3 0-82.6-1-83.3-.7-.4-38.1-.8-83-.8H15.1l-.6 3.2zM157 101.5V161l-59.2-.2-59.3-.3v-23l47.3-.3 47.2-.2V66H62v47H38V78.2c0-19.2.3-35.2.7-35.5.3-.4 27.1-.7 59.5-.7H157v59.5zm-47.2.2.3 11.3H86V89.9l11.8.3 11.7.3.3 11.2z"/>
</symbol>
  </defs>
</svg>



   