<?xml version="1.0" encoding="utf-8"?>
<svg xmlns="http://www.w3.org/2000/svg">
  <defs>
    <symbol viewBox="0 0 190 190" id="a-char" xmlns="http://www.w3.org/2000/svg">
      <path d="M14.5 17.2c-.3.7-.4 38.2-.3 83.3l.3 82h166l.3-82.4c.2-65.3 0-82.6-1-83.3-.7-.4-38.1-.8-83.1-.8-64.5 0-81.9.3-82.2 1.2zm142 34.8v11.5L133 64l-23.5.5L109 76l-.5 11.5-11.2.3-11.3.3V77.3c0-5.9-.4-11.4-.8-12-.6-.9-6.9-1.3-23.7-1.5l-23-.3-.3-10.4c-.1-5.8 0-11.1.2-11.8.5-1.1 11.3-1.3 59.3-1.1l58.8.3V52zm.3 70.2-.3 36.3-59.2.3-59.3.2V88h24v23h71V86h24l-.2 36.2z"/>
    </symbol>
    <symbol viewBox="0 0 196 196" id="b-char" xmlns="http://www.w3.org/2000/svg">
      <path d="M14.5 21.2c-.3 1.8-.4 39.3-.3 83.3l.3 80h166l.3-82.4c.2-65.3 0-82.6-1-83.3-.7-.4-38.1-.8-83-.8H15.1l-.6 3.2zM157 101.5V161l-59.2-.2-59.3-.3v-23l47.3-.3 47.2-.2V66H62v47H38V78.2c0-19.2.3-35.2.7-35.5.3-.4 27.1-.7 59.5-.7H157v59.5zm-47.2.2.3 11.3H86V89.9l11.8.3 11.7.3.3 11.2z"/>
    </symbol>
    <symbol viewBox="0 0 188 180" id="c-char" xmlns="http://www.w3.org/2000/svg">
      <path d="M19.5 11.2c-.3.7-.4 38.2-.3 83.3l.3 82 82.8.3 82.7.2-.2-83.2-.3-83.3-82.3-.3c-65.3-.2-82.4 0-82.7 1zm142 26c.3 1.8.5 7.1.3 11.8l-.3 8.5-23.7.3-23.8.2v71h23c27.1 0 25.2-1 24.8 13.8l-.3 9.7-59.2.3-59.3.2V34h117.9l.6 3.2zm0 49.1c.4 2.4.5 7.5.3 11.3l-.3 6.9-11.7.3-11.8.3V82h22.9l.6 4.3z"/>
    </symbol>
    <symbol viewBox="0 0 196 190" id="d-char" xmlns="http://www.w3.org/2000/svg">
      <path d="M17.5 13.2c-.3.7-.4 38.2-.3 83.3l.3 82h166l.3-81.9c.1-59.7-.1-82.2-.9-83.2-1.6-2-164.7-2.1-165.4-.2zm142 82.3v59h-71l-.3-23c-.2-16.8-.6-23.1-1.5-23.7-.6-.4-11.2-.8-23.4-.8H41V36l59.3.2 59.2.3v59zm-95 47.5v11.5l-11.7.3-11.8.3v-11.4c0-6.3.3-11.7.7-12.1.4-.3 5.7-.5 11.7-.4l11.1.3V143z"/>
    </symbol>
    <symbol viewBox="0 0 196 184" id="e-char" xmlns="http://www.w3.org/2000/svg">
      <path d="M15.5 10.2c-.3 1.3-.4 38.7-.3 83.3l.3 81h166V8.5l-82.7-.3L16 8l-.5 2.2zM158 67.5V103H87l-.2-23.3-.3-23.2L63 56l-23.5-.5-.3-10.4c-.1-5.8 0-11.1.2-11.8.4-1.1 11.7-1.3 59.6-1.3h59v35.5zm-95 36V127l47.3.2 47.2.3.3 11.8.3 11.7-59.3-.2-59.3-.3-.3-35.3L39 80h24v23.5z"/>
    </symbol>
    <symbol viewBox="0 0 188 192" id="f-char" xmlns="http://www.w3.org/2000/svg">
      <path d="M12.7 10.7c-.4.3-.7 37.9-.7 83.5V177h166l-.2-83.3-.3-83.2-82.1-.3c-45.1-.1-82.4.1-82.7.5zM154 93.5V153l-59.2-.2-59.3-.3-.3-21.8c-.1-13.9.1-22.5.8-23.7 1-1.8 2.1-2 10.8-2 5.3 0 10.2.4 10.9.8.8.5 1.3 4.5 1.5 11.7l.3 11 11.7.3 11.7.3.3-11.8.3-11.8 8.5-.3c4.7-.2 10 0 11.8.3l3.2.6v23l11.8-.3 11.7-.3v-70l-11.7-.3-11.7-.3-.3 11.8-.3 11.8h-23l-.3-11.8-.3-11.8-11.7.3-11.7.3L59 70l-.5 11.5h-23l-.2-21.6c-.1-11.9.1-22.6.4-23.8l.5-2.1H154v59.5z"/>
    </symbol>
  </defs>
</svg>



   