<?xml version="1.0" standalone="no"?>
<!DOCTYPE svg PUBLIC "-//W3C//DTD SVG 20010904//EN"
 "http://www.w3.org/TR/2001/REC-SVG-20010904/DTD/svg10.dtd">
<svg version="1.0" xmlns="http://www.w3.org/2000/svg"
 width="192.000000pt" height="196.000000pt" viewBox="0 0 192.000000 196.000000"
 preserveAspectRatio="xMidYMid meet">
<metadata>
Created by potrace 1.10, written by Peter Selinger 2001-2011
</metadata>
<g transform="translate(0.000000,196.000000) scale(0.100000,-0.100000)"
fill="#000000" stroke="none">
<path d="M145 1788 c-3 -7 -4 -382 -3 -833 l3 -820 830 0 830 0 3 824 c2 653
0 826 -10 833 -7 4 -381 8 -831 8 -645 0 -819 -3 -822 -12z m1420 -348 l0
-115 -235 -5 -235 -5 -5 -115 -5 -115 -112 -3 -113 -3 0 108 c0 59 -4 114 -8
120 -6 9 -69 13 -237 15 l-230 3 -3 104 c-1 58 0 111 2 118 5 11 113 13 593
11 l588 -3 0 -115z m3 -702 l-3 -363 -592 -3 -593 -2 0 355 0 355 120 0 120 0
0 -115 0 -115 355 0 355 0 0 125 0 125 120 0 120 0 -2 -362z"/>
</g>
</svg>
