<?xml version="1.0" standalone="no"?>
<!DOCTYPE svg PUBLIC "-//W3C//DTD SVG 20010904//EN"
 "http://www.w3.org/TR/2001/REC-SVG-20010904/DTD/svg10.dtd">
<svg version="1.0" xmlns="http://www.w3.org/2000/svg"
 width="196.000000pt" height="196.000000pt" viewBox="0 0 196.000000 196.000000"
 preserveAspectRatio="xMidYMid meet">
<metadata>
Created by potrace 1.10, written by Peter Selinger 2001-2011
</metadata>
<g transform="translate(0.000000,196.000000) scale(0.100000,-0.100000)"
fill="#000000" stroke="none">
<path d="M145 1748 c-3 -18 -4 -393 -3 -833 l3 -800 830 0 830 0 3 824 c2 653
0 826 -10 833 -7 4 -381 8 -830 8 l-817 0 -6 -32z m1425 -803 l0 -595 -592 2
-593 3 0 115 0 115 473 3 472 2 0 355 0 355 -355 0 -355 0 0 -235 0 -235 -120
0 -120 0 0 348 c0 192 3 352 7 355 3 4 271 7 595 7 l588 0 0 -595z m-472 -2
l3 -113 -121 0 -120 0 0 115 0 116 118 -3 117 -3 3 -112z"/>
</g>
</svg>
