<?xml version="1.0" standalone="no"?>
<!DOCTYPE svg PUBLIC "-//W3C//DTD SVG 20010904//EN"
 "http://www.w3.org/TR/2001/REC-SVG-20010904/DTD/svg10.dtd">
<svg version="1.0" xmlns="http://www.w3.org/2000/svg"
 width="188.000000pt" height="180.000000pt" viewBox="0 0 188.000000 180.000000"
 preserveAspectRatio="xMidYMid meet">
<metadata>
Created by potrace 1.10, written by Peter Selinger 2001-2011
</metadata>
<g transform="translate(0.000000,180.000000) scale(0.100000,-0.100000)"
fill="#000000" stroke="none">
<path d="M195 1688 c-3 -7 -4 -382 -3 -833 l3 -820 828 -3 827 -2 -2 832 -3
833 -823 3 c-653 2 -824 0 -827 -10z m1420 -260 c3 -18 5 -71 3 -118 l-3 -85
-237 -3 -238 -2 0 -355 0 -355 230 0 c271 0 252 10 248 -138 l-3 -97 -592 -3
-593 -2 0 595 0 595 590 0 589 0 6 -32z m0 -491 c4 -24 5 -75 3 -113 l-3 -69
-117 -3 -118 -3 0 116 0 115 114 0 115 0 6 -43z"/>
</g>
</svg>
