<?xml version="1.0" standalone="no"?>
<!DOCTYPE svg PUBLIC "-//W3C//DTD SVG 20010904//EN"
 "http://www.w3.org/TR/2001/REC-SVG-20010904/DTD/svg10.dtd">
<svg version="1.0" xmlns="http://www.w3.org/2000/svg"
 width="196.000000pt" height="190.000000pt" viewBox="0 0 196.000000 190.000000"
 preserveAspectRatio="xMidYMid meet">
<metadata>
Created by potrace 1.10, written by Peter Selinger 2001-2011
</metadata>
<g transform="translate(0.000000,190.000000) scale(0.100000,-0.100000)"
fill="#000000" stroke="none">
<path d="M175 1768 c-3 -7 -4 -382 -3 -833 l3 -820 830 0 830 0 3 819 c1 597
-1 822 -9 832 -16 20 -1647 21 -1654 2z m1420 -823 l0 -590 -355 0 -355 0 -3
230 c-2 168 -6 231 -15 237 -6 4 -112 8 -234 8 l-223 0 0 355 0 355 593 -2
592 -3 0 -590z m-950 -475 l0 -115 -117 -3 -118 -3 0 114 c0 63 3 117 7 121 4
3 57 5 117 4 l111 -3 0 -115z"/>
</g>
</svg>
