<?xml version="1.0" standalone="no"?>
<!DOCTYPE svg PUBLIC "-//W3C//DTD SVG 20010904//EN"
 "http://www.w3.org/TR/2001/REC-SVG-20010904/DTD/svg10.dtd">
<svg version="1.0" xmlns="http://www.w3.org/2000/svg"
 width="196.000000pt" height="184.000000pt" viewBox="0 0 196.000000 184.000000"
 preserveAspectRatio="xMidYMid meet">
<metadata>
Created by potrace 1.10, written by Peter Selinger 2001-2011
</metadata>
<g transform="translate(0.000000,184.000000) scale(0.100000,-0.100000)"
fill="#000000" stroke="none">
<path d="M155 1738 c-3 -13 -4 -387 -3 -833 l3 -810 830 0 830 0 0 830 0 830
-827 3 -828 2 -5 -22z m1425 -573 l0 -355 -355 0 -355 0 -2 233 -3 232 -235 5
-235 5 -3 104 c-1 58 0 111 2 118 4 11 117 13 596 13 l590 0 0 -355z m-950
-360 l0 -235 473 -2 472 -3 3 -118 3 -117 -593 2 -593 3 -3 353 -2 352 120 0
120 0 0 -235z"/>
</g>
</svg>
