<?xml version="1.0" standalone="no"?>
<!DOCTYPE svg PUBLIC "-//W3C//DTD SVG 20010904//EN"
 "http://www.w3.org/TR/2001/REC-SVG-20010904/DTD/svg10.dtd">
<svg version="1.0" xmlns="http://www.w3.org/2000/svg"
 width="188.000000pt" height="192.000000pt" viewBox="0 0 188.000000 192.000000"
 preserveAspectRatio="xMidYMid meet">
<metadata>
Created by potrace 1.10, written by Peter Selinger 2001-2011
</metadata>
<g transform="translate(0.000000,192.000000) scale(0.100000,-0.100000)"
fill="#000000" stroke="none">
<path d="M127 1813 c-4 -3 -7 -379 -7 -835 l0 -828 830 0 830 0 -2 833 -3 832
-821 3 c-451 1 -824 -1 -827 -5z m1413 -828 l0 -595 -592 2 -593 3 -3 218 c-1
139 1 225 8 237 10 18 21 20 108 20 53 0 102 -4 109 -8 8 -5 13 -45 15 -117
l3 -110 117 -3 117 -3 3 118 3 118 85 3 c47 2 100 0 118 -3 l32 -6 0 -115 0
-115 118 3 117 3 0 350 0 350 -117 3 -117 3 -3 -118 -3 -118 -115 0 -115 0 -3
118 -3 118 -117 -3 -117 -3 -5 -115 -5 -115 -115 0 -115 0 -2 216 c-1 119 1
226 4 238 l5 21 589 0 589 0 0 -595z"/>
</g>
</svg>
